<mxfile host="app.diagrams.net" agent="Mozilla/5.0 (Windows NT 10.0; Win64; x64) AppleWebKit/537.36 (KHTML, like Gecko) Chrome/128.0.0.0 Safari/537.36 Edg/128.0.0.0" version="24.7.12">
  <diagram name="Page-1" id="fi7rqsG0YJA89yUUvdB2">
    <mxGraphModel>
      <root>
        <mxCell id="0" />
        <mxCell id="1" parent="0" />
        <mxCell id="2" value="Start" style="whiteSpace=wrap;strokeWidth=2;" vertex="1" parent="1">
          <mxGeometry y="210" width="51" height="34" as="geometry" />
        </mxCell>
        <mxCell id="3" value="Decide" style="rounded=1;absoluteArcSize=1;arcSize=14;whiteSpace=wrap;strokeWidth=2;" vertex="1" parent="1">
          <mxGeometry x="101" y="210" width="64" height="34" as="geometry" />
        </mxCell>
        <mxCell id="4" value="Action 1" style="whiteSpace=wrap;strokeWidth=2;" vertex="1" parent="1">
          <mxGeometry x="276" y="11" width="75" height="34" as="geometry" />
        </mxCell>
        <mxCell id="5" value="Action 2" style="whiteSpace=wrap;strokeWidth=2;" vertex="1" parent="1">
          <mxGeometry x="276" y="240" width="75" height="34" as="geometry" />
        </mxCell>
        <mxCell id="6" value="Condition" style="rhombus;strokeWidth=2;whiteSpace=wrap;" vertex="1" parent="1">
          <mxGeometry x="431" width="118" height="118" as="geometry" />
        </mxCell>
        <mxCell id="7" value="Result 1" style="whiteSpace=wrap;strokeWidth=2;" vertex="1" parent="1">
          <mxGeometry x="655" y="42" width="72" height="34" as="geometry" />
        </mxCell>
        <mxCell id="8" value="End" style="rounded=1;absoluteArcSize=1;arcSize=14;whiteSpace=wrap;strokeWidth=2;" vertex="1" parent="1">
          <mxGeometry x="778" y="84" width="41" height="34" as="geometry" />
        </mxCell>
        <mxCell id="9" value="Another condition" style="rhombus;strokeWidth=2;whiteSpace=wrap;" vertex="1" parent="1">
          <mxGeometry x="401" y="168" width="179" height="179" as="geometry" />
        </mxCell>
        <mxCell id="10" value="Result 2" style="whiteSpace=wrap;strokeWidth=2;" vertex="1" parent="1">
          <mxGeometry x="655" y="183" width="72" height="34" as="geometry" />
        </mxCell>
        <mxCell id="11" value="Action 3" style="whiteSpace=wrap;strokeWidth=2;" vertex="1" parent="1">
          <mxGeometry x="654" y="350" width="75" height="34" as="geometry" />
        </mxCell>
        <mxCell id="12" value="" style="curved=1;startArrow=none;endArrow=block;exitX=0.99;exitY=0.49;entryX=-0.01;entryY=0.49;" edge="1" parent="1" source="2" target="3">
          <mxGeometry relative="1" as="geometry">
            <Array as="points" />
          </mxGeometry>
        </mxCell>
        <mxCell id="13" value="Option 1" style="curved=1;startArrow=none;endArrow=block;exitX=0.61;exitY=-0.01;entryX=0;entryY=0.51;" edge="1" parent="1" source="3" target="4">
          <mxGeometry relative="1" as="geometry">
            <Array as="points">
              <mxPoint x="220" y="28" />
            </Array>
          </mxGeometry>
        </mxCell>
        <mxCell id="14" value="Option 2" style="curved=1;startArrow=none;endArrow=block;exitX=0.99;exitY=0.82;entryX=0;entryY=0.51;" edge="1" parent="1" source="3" target="5">
          <mxGeometry relative="1" as="geometry">
            <Array as="points">
              <mxPoint x="220" y="257" />
            </Array>
          </mxGeometry>
        </mxCell>
        <mxCell id="15" value="" style="curved=1;startArrow=none;endArrow=block;exitX=0.99;exitY=0.51;entryX=0;entryY=0.37;" edge="1" parent="1" source="4" target="6">
          <mxGeometry relative="1" as="geometry">
            <Array as="points">
              <mxPoint x="376" y="28" />
            </Array>
          </mxGeometry>
        </mxCell>
        <mxCell id="16" value="Yes" style="curved=1;startArrow=none;endArrow=block;exitX=1;exitY=0.5;entryX=0;entryY=0.5;" edge="1" parent="1" source="6" target="7">
          <mxGeometry relative="1" as="geometry">
            <Array as="points" />
          </mxGeometry>
        </mxCell>
        <mxCell id="17" value="No" style="curved=1;startArrow=none;endArrow=block;exitX=0;exitY=0.8;entryX=0.73;entryY=-0.01;" edge="1" parent="1" source="6" target="3">
          <mxGeometry relative="1" as="geometry">
            <Array as="points">
              <mxPoint x="376" y="127" />
              <mxPoint x="220" y="127" />
            </Array>
          </mxGeometry>
        </mxCell>
        <mxCell id="18" value="" style="curved=1;startArrow=none;endArrow=block;exitX=1;exitY=0.5;entryX=0.06;entryY=0;" edge="1" parent="1" source="7" target="8">
          <mxGeometry relative="1" as="geometry">
            <Array as="points">
              <mxPoint x="753" y="59" />
            </Array>
          </mxGeometry>
        </mxCell>
        <mxCell id="19" value="" style="curved=1;startArrow=none;endArrow=block;exitX=0.99;exitY=0.51;entryX=0;entryY=0.5;" edge="1" parent="1" source="5" target="9">
          <mxGeometry relative="1" as="geometry">
            <Array as="points" />
          </mxGeometry>
        </mxCell>
        <mxCell id="20" value="Yes" style="curved=1;startArrow=none;endArrow=block;exitX=1;exitY=0.27;entryX=0;entryY=0.5;" edge="1" parent="1" source="9" target="10">
          <mxGeometry relative="1" as="geometry">
            <Array as="points">
              <mxPoint x="616" y="200" />
            </Array>
          </mxGeometry>
        </mxCell>
        <mxCell id="21" value="No" style="curved=1;startArrow=none;endArrow=block;exitX=1;exitY=0.69;entryX=0.22;entryY=0;" edge="1" parent="1" source="9" target="11">
          <mxGeometry relative="1" as="geometry">
            <Array as="points">
              <mxPoint x="616" y="305" />
            </Array>
          </mxGeometry>
        </mxCell>
        <mxCell id="22" value="" style="curved=1;startArrow=none;endArrow=block;exitX=-0.01;exitY=0.72;entryX=0.64;entryY=0.99;" edge="1" parent="1" source="11" target="3">
          <mxGeometry relative="1" as="geometry">
            <Array as="points">
              <mxPoint x="616" y="382" />
              <mxPoint x="220" y="382" />
            </Array>
          </mxGeometry>
        </mxCell>
        <mxCell id="23" value="" style="curved=1;startArrow=none;endArrow=block;exitX=1;exitY=0.5;entryX=0.32;entryY=1;" edge="1" parent="1" source="10" target="8">
          <mxGeometry relative="1" as="geometry">
            <Array as="points">
              <mxPoint x="753" y="200" />
            </Array>
          </mxGeometry>
        </mxCell>
      </root>
    </mxGraphModel>
  </diagram>
</mxfile>
